<svg width="1069" height="1069"  viewBox="0 0 1069 1069" fill="none" xmlns="http://www.w3.org/2000/svg">
<g clip-path="url(#clip0_126_845)">
<path d="M59.3929 0.0444336L0.0444336 0.0444336L0.0444336 59.3929H59.3929V0.0444336Z" stroke="#2167F2" stroke-opacity="0.2" stroke-width="3.25"/>
<path d="M118.742 0.0444336L59.3931 0.0444336V59.3929H118.742V0.0444336Z" stroke="#2167F2" stroke-opacity="0.2" stroke-width="3.25"/>
<path d="M178.09 0.0444336L118.741 0.0444336V59.3929H178.09V0.0444336Z" stroke="#2167F2" stroke-opacity="0.2" stroke-width="3.25"/>
<path d="M237.438 0.0444336L178.09 0.0444336V59.3929H237.438V0.0444336Z" stroke="#2167F2" stroke-opacity="0.2" stroke-width="3.25"/>
<path d="M296.787 0.0444336L237.438 0.0444336V59.3929H296.787V0.0444336Z" stroke="#2167F2" stroke-opacity="0.2" stroke-width="3.25"/>
<path d="M356.136 0.0444336L296.787 0.0444336V59.3929H356.136V0.0444336Z" stroke="#2167F2" stroke-opacity="0.2" stroke-width="3.25"/>
<path d="M415.484 0.0444336L356.135 0.0444336V59.3929H415.484V0.0444336Z" stroke="#2167F2" stroke-opacity="0.2" stroke-width="3.25"/>
<path d="M474.832 0.0444336L415.484 0.0444336V59.3929H474.832V0.0444336Z" stroke="#2167F2" stroke-opacity="0.2" stroke-width="3.25"/>
<path d="M534.181 0.0444336L474.833 0.0444336V59.3929H534.181V0.0444336Z" stroke="#2167F2" stroke-opacity="0.2" stroke-width="3.25"/>
<path d="M593.529 0.0444336L534.181 0.0444336V59.3929H593.529V0.0444336Z" stroke="#2167F2" stroke-opacity="0.2" stroke-width="3.25"/>
<path d="M652.878 0.0444336L593.529 0.0444336V59.3929H652.878V0.0444336Z" stroke="#2167F2" stroke-opacity="0.2" stroke-width="3.25"/>
<path d="M712.226 0.0444336L652.878 0.0444336V59.3929H712.226V0.0444336Z" stroke="#2167F2" stroke-opacity="0.2" stroke-width="3.25"/>
<path d="M771.575 0.0444336L712.227 0.0444336V59.3929H771.575V0.0444336Z" stroke="#2167F2" stroke-opacity="0.2" stroke-width="3.25"/>
<path d="M830.924 0.0444336L771.575 0.0444336V59.3929H830.924V0.0444336Z" stroke="#2167F2" stroke-opacity="0.2" stroke-width="3.25"/>
<path d="M890.272 0.0444336L830.924 0.0444336V59.3929H890.272V0.0444336Z" stroke="#2167F2" stroke-opacity="0.2" stroke-width="3.25"/>
<path d="M949.621 0.0444336L890.272 0.0444336V59.3929H949.621V0.0444336Z" stroke="#2167F2" stroke-opacity="0.2" stroke-width="3.25"/>
<path d="M1008.97 0.0444336L949.62 0.0444336V59.3929H1008.97V0.0444336Z" stroke="#2167F2" stroke-opacity="0.2" stroke-width="3.25"/>
<path d="M1068.32 0.0444336L1008.97 0.0444336V59.3929H1068.32V0.0444336Z" stroke="#2167F2" stroke-opacity="0.2" stroke-width="3.25"/>
<path d="M1127.67 0.0444336L1068.32 0.0444336V59.3929H1127.67V0.0444336Z" stroke="#2167F2" stroke-opacity="0.2" stroke-width="3.25"/>
<path d="M59.3929 59.3928H0.0444336L0.0444336 118.741H59.3929V59.3928Z" stroke="#2167F2" stroke-opacity="0.2" stroke-width="3.25"/>
<path d="M118.742 59.3928H59.3931V118.741H118.742V59.3928Z" stroke="#2167F2" stroke-opacity="0.2" stroke-width="3.25"/>
<path d="M178.09 59.3928H118.741V118.741H178.09V59.3928Z" stroke="#2167F2" stroke-opacity="0.2" stroke-width="3.25"/>
<path d="M237.438 59.3928H178.09V118.741H237.438V59.3928Z" stroke="#2167F2" stroke-opacity="0.2" stroke-width="3.25"/>
<path d="M296.787 59.3928H237.438V118.741H296.787V59.3928Z" stroke="#2167F2" stroke-opacity="0.2" stroke-width="3.25"/>
<path d="M356.136 59.3928H296.787V118.741H356.136V59.3928Z" stroke="#2167F2" stroke-opacity="0.2" stroke-width="3.25"/>
<path d="M415.484 59.3928H356.135V118.741H415.484V59.3928Z" stroke="#2167F2" stroke-opacity="0.2" stroke-width="3.25"/>
<path d="M474.832 59.3928H415.484V118.741H474.832V59.3928Z" stroke="#2167F2" stroke-opacity="0.2" stroke-width="3.25"/>
<path d="M534.181 59.3928H474.833V118.741H534.181V59.3928Z" stroke="#2167F2" stroke-opacity="0.2" stroke-width="3.25"/>
<path d="M593.529 59.3928H534.181V118.741H593.529V59.3928Z" stroke="#2167F2" stroke-opacity="0.2" stroke-width="3.25"/>
<path d="M652.878 59.3928H593.529V118.741H652.878V59.3928Z" stroke="#2167F2" stroke-opacity="0.2" stroke-width="3.25"/>
<path d="M712.226 59.3928H652.878V118.741H712.226V59.3928Z" stroke="#2167F2" stroke-opacity="0.2" stroke-width="3.25"/>
<path d="M771.575 59.3928H712.227V118.741H771.575V59.3928Z" stroke="#2167F2" stroke-opacity="0.2" stroke-width="3.25"/>
<path d="M830.924 59.3928H771.575V118.741H830.924V59.3928Z" stroke="#2167F2" stroke-opacity="0.2" stroke-width="3.25"/>
<path d="M890.272 59.3928H830.924V118.741H890.272V59.3928Z" stroke="#2167F2" stroke-opacity="0.2" stroke-width="3.25"/>
<path d="M949.621 59.3928H890.272V118.741H949.621V59.3928Z" stroke="#2167F2" stroke-opacity="0.2" stroke-width="3.25"/>
<path d="M1008.97 59.3928H949.62V118.741H1008.97V59.3928Z" stroke="#2167F2" stroke-opacity="0.2" stroke-width="3.25"/>
<path d="M1068.32 59.3928H1008.97V118.741H1068.32V59.3928Z" stroke="#2167F2" stroke-opacity="0.2" stroke-width="3.25"/>
<path d="M1127.67 59.3928H1068.32V118.741H1127.67V59.3928Z" stroke="#2167F2" stroke-opacity="0.2" stroke-width="3.25"/>
<path d="M59.3929 118.741H0.0444336L0.0444336 178.09H59.3929V118.741Z" stroke="#2167F2" stroke-opacity="0.2" stroke-width="3.25"/>
<path d="M118.742 118.741H59.3931V178.09H118.742V118.741Z" stroke="#2167F2" stroke-opacity="0.2" stroke-width="3.25"/>
<path d="M178.09 118.741H118.741V178.09H178.09V118.741Z" stroke="#2167F2" stroke-opacity="0.2" stroke-width="3.25"/>
<path d="M237.438 118.741H178.09V178.09H237.438V118.741Z" stroke="#2167F2" stroke-opacity="0.2" stroke-width="3.25"/>
<path d="M296.787 118.741H237.438V178.09H296.787V118.741Z" stroke="#2167F2" stroke-opacity="0.2" stroke-width="3.25"/>
<path d="M356.136 118.741H296.787V178.09H356.136V118.741Z" stroke="#2167F2" stroke-opacity="0.2" stroke-width="3.25"/>
<path d="M415.484 118.741H356.135V178.09H415.484V118.741Z" stroke="#2167F2" stroke-opacity="0.2" stroke-width="3.25"/>
<path d="M474.832 118.741H415.484V178.09H474.832V118.741Z" stroke="#2167F2" stroke-opacity="0.2" stroke-width="3.25"/>
<path d="M534.181 118.741H474.833V178.09H534.181V118.741Z" stroke="#2167F2" stroke-opacity="0.2" stroke-width="3.25"/>
<path d="M593.529 118.741H534.181V178.09H593.529V118.741Z" stroke="#2167F2" stroke-opacity="0.2" stroke-width="3.25"/>
<path d="M652.878 118.741H593.529V178.09H652.878V118.741Z" stroke="#2167F2" stroke-opacity="0.2" stroke-width="3.25"/>
<path d="M712.226 118.741H652.878V178.09H712.226V118.741Z" stroke="#2167F2" stroke-opacity="0.2" stroke-width="3.25"/>
<path d="M771.575 118.741H712.227V178.09H771.575V118.741Z" stroke="#2167F2" stroke-opacity="0.2" stroke-width="3.25"/>
<path d="M830.924 118.741H771.575V178.09H830.924V118.741Z" stroke="#2167F2" stroke-opacity="0.2" stroke-width="3.25"/>
<path d="M890.272 118.741H830.924V178.09H890.272V118.741Z" stroke="#2167F2" stroke-opacity="0.2" stroke-width="3.25"/>
<path d="M949.621 118.741H890.272V178.09H949.621V118.741Z" stroke="#2167F2" stroke-opacity="0.2" stroke-width="3.25"/>
<path d="M1008.97 118.741H949.62V178.09H1008.97V118.741Z" stroke="#2167F2" stroke-opacity="0.2" stroke-width="3.25"/>
<path d="M1068.32 118.741H1008.97V178.09H1068.32V118.741Z" stroke="#2167F2" stroke-opacity="0.2" stroke-width="3.25"/>
<path d="M1127.67 118.741H1068.32V178.09H1127.67V118.741Z" stroke="#2167F2" stroke-opacity="0.2" stroke-width="3.25"/>
<path d="M59.3929 178.09H0.0444336L0.0444336 237.438H59.3929V178.09Z" stroke="#2167F2" stroke-opacity="0.2" stroke-width="3.25"/>
<path d="M118.742 178.09H59.3931V237.438H118.742V178.09Z" stroke="#2167F2" stroke-opacity="0.2" stroke-width="3.25"/>
<path d="M178.09 178.09H118.741V237.438H178.09V178.09Z" stroke="#2167F2" stroke-opacity="0.2" stroke-width="3.25"/>
<path d="M237.438 178.09H178.09V237.438H237.438V178.09Z" stroke="#2167F2" stroke-opacity="0.2" stroke-width="3.25"/>
<path d="M296.787 178.09H237.438V237.438H296.787V178.09Z" stroke="#2167F2" stroke-opacity="0.2" stroke-width="3.25"/>
<path d="M356.136 178.09H296.787V237.438H356.136V178.09Z" stroke="#2167F2" stroke-opacity="0.2" stroke-width="3.25"/>
<path d="M415.484 178.09H356.135V237.438H415.484V178.09Z" stroke="#2167F2" stroke-opacity="0.2" stroke-width="3.25"/>
<path d="M474.832 178.09H415.484V237.438H474.832V178.09Z" stroke="#2167F2" stroke-opacity="0.2" stroke-width="3.25"/>
<path d="M534.181 178.09H474.833V237.438H534.181V178.09Z" stroke="#2167F2" stroke-opacity="0.2" stroke-width="3.25"/>
<path d="M593.529 178.09H534.181V237.438H593.529V178.09Z" stroke="#2167F2" stroke-opacity="0.2" stroke-width="3.25"/>
<path d="M652.878 178.09H593.529V237.438H652.878V178.09Z" stroke="#2167F2" stroke-opacity="0.2" stroke-width="3.25"/>
<path d="M712.226 178.09H652.878V237.438H712.226V178.09Z" stroke="#2167F2" stroke-opacity="0.2" stroke-width="3.25"/>
<path d="M771.575 178.09H712.227V237.438H771.575V178.09Z" stroke="#2167F2" stroke-opacity="0.2" stroke-width="3.25"/>
<path d="M830.924 178.09H771.575V237.438H830.924V178.09Z" stroke="#2167F2" stroke-opacity="0.2" stroke-width="3.25"/>
<path d="M890.272 178.09H830.924V237.438H890.272V178.09Z" stroke="#2167F2" stroke-opacity="0.2" stroke-width="3.25"/>
<path d="M949.621 178.09H890.272V237.438H949.621V178.09Z" stroke="#2167F2" stroke-opacity="0.2" stroke-width="3.25"/>
<path d="M1008.97 178.09H949.62V237.438H1008.97V178.09Z" stroke="#2167F2" stroke-opacity="0.2" stroke-width="3.25"/>
<path d="M1068.32 178.09H1008.97V237.438H1068.32V178.09Z" stroke="#2167F2" stroke-opacity="0.2" stroke-width="3.25"/>
<path d="M1127.67 178.09H1068.32V237.438H1127.67V178.09Z" stroke="#2167F2" stroke-opacity="0.2" stroke-width="3.25"/>
<path d="M59.3929 237.438H0.0444336L0.0444336 296.787H59.3929V237.438Z" stroke="#2167F2" stroke-opacity="0.2" stroke-width="3.25"/>
<path d="M118.742 237.438H59.3931V296.787H118.742V237.438Z" stroke="#2167F2" stroke-opacity="0.2" stroke-width="3.25"/>
<path d="M178.09 237.438H118.741V296.787H178.09V237.438Z" stroke="#2167F2" stroke-opacity="0.2" stroke-width="3.25"/>
<path d="M237.438 237.438H178.09V296.787H237.438V237.438Z" stroke="#2167F2" stroke-opacity="0.2" stroke-width="3.25"/>
<path d="M296.787 237.438H237.438V296.787H296.787V237.438Z" stroke="#2167F2" stroke-opacity="0.2" stroke-width="3.25"/>
<path d="M356.136 237.438H296.787V296.787H356.136V237.438Z" stroke="#2167F2" stroke-opacity="0.2" stroke-width="3.25"/>
<path d="M415.484 237.438H356.135V296.787H415.484V237.438Z" stroke="#2167F2" stroke-opacity="0.2" stroke-width="3.25"/>
<path d="M474.832 237.438H415.484V296.787H474.832V237.438Z" stroke="#2167F2" stroke-opacity="0.2" stroke-width="3.25"/>
<path d="M534.181 237.438H474.833V296.787H534.181V237.438Z" stroke="#2167F2" stroke-opacity="0.2" stroke-width="3.25"/>
<path d="M593.529 237.438H534.181V296.787H593.529V237.438Z" stroke="#2167F2" stroke-opacity="0.2" stroke-width="3.25"/>
<path d="M652.878 237.438H593.529V296.787H652.878V237.438Z" stroke="#2167F2" stroke-opacity="0.2" stroke-width="3.25"/>
<path d="M712.226 237.438H652.878V296.787H712.226V237.438Z" stroke="#2167F2" stroke-opacity="0.2" stroke-width="3.25"/>
<path d="M771.575 237.438H712.227V296.787H771.575V237.438Z" stroke="#2167F2" stroke-opacity="0.2" stroke-width="3.25"/>
<path d="M830.924 237.438H771.575V296.787H830.924V237.438Z" stroke="#2167F2" stroke-opacity="0.2" stroke-width="3.25"/>
<path d="M890.272 237.438H830.924V296.787H890.272V237.438Z" stroke="#2167F2" stroke-opacity="0.2" stroke-width="3.25"/>
<path d="M949.621 237.438H890.272V296.787H949.621V237.438Z" stroke="#2167F2" stroke-opacity="0.2" stroke-width="3.25"/>
<path d="M1008.97 237.438H949.62V296.787H1008.97V237.438Z" stroke="#2167F2" stroke-opacity="0.2" stroke-width="3.25"/>
<path d="M1068.32 237.438H1008.97V296.787H1068.32V237.438Z" stroke="#2167F2" stroke-opacity="0.2" stroke-width="3.25"/>
<path d="M1127.67 237.438H1068.32V296.787H1127.67V237.438Z" stroke="#2167F2" stroke-opacity="0.2" stroke-width="3.25"/>
<path d="M59.3929 296.787H0.0444336L0.0444336 356.135H59.3929V296.787Z" stroke="#2167F2" stroke-opacity="0.2" stroke-width="3.25"/>
<path d="M118.742 296.787H59.3931V356.135H118.742V296.787Z" stroke="#2167F2" stroke-opacity="0.2" stroke-width="3.25"/>
<path d="M178.09 296.787H118.741V356.135H178.09V296.787Z" stroke="#2167F2" stroke-opacity="0.2" stroke-width="3.25"/>
<path d="M237.438 296.787H178.09V356.135H237.438V296.787Z" stroke="#2167F2" stroke-opacity="0.2" stroke-width="3.25"/>
<path d="M296.787 296.787H237.438V356.135H296.787V296.787Z" stroke="#2167F2" stroke-opacity="0.2" stroke-width="3.25"/>
<path d="M356.136 296.787H296.787V356.135H356.136V296.787Z" stroke="#2167F2" stroke-opacity="0.2" stroke-width="3.25"/>
<path d="M415.484 296.787H356.135V356.135H415.484V296.787Z" stroke="#2167F2" stroke-opacity="0.2" stroke-width="3.25"/>
<path d="M474.832 296.787H415.484V356.135H474.832V296.787Z" stroke="#2167F2" stroke-opacity="0.2" stroke-width="3.25"/>
<path d="M534.181 296.787H474.833V356.135H534.181V296.787Z" stroke="#2167F2" stroke-opacity="0.2" stroke-width="3.25"/>
<path d="M593.529 296.787H534.181V356.135H593.529V296.787Z" stroke="#2167F2" stroke-opacity="0.2" stroke-width="3.25"/>
<path d="M652.878 296.787H593.529V356.135H652.878V296.787Z" stroke="#2167F2" stroke-opacity="0.2" stroke-width="3.25"/>
<path d="M712.226 296.787H652.878V356.135H712.226V296.787Z" stroke="#2167F2" stroke-opacity="0.2" stroke-width="3.25"/>
<path d="M771.575 296.787H712.227V356.135H771.575V296.787Z" stroke="#2167F2" stroke-opacity="0.2" stroke-width="3.25"/>
<path d="M830.924 296.787H771.575V356.135H830.924V296.787Z" stroke="#2167F2" stroke-opacity="0.2" stroke-width="3.25"/>
<path d="M890.272 296.787H830.924V356.135H890.272V296.787Z" stroke="#2167F2" stroke-opacity="0.2" stroke-width="3.25"/>
<path d="M949.621 296.787H890.272V356.135H949.621V296.787Z" stroke="#2167F2" stroke-opacity="0.2" stroke-width="3.25"/>
<path d="M1008.97 296.787H949.62V356.135H1008.97V296.787Z" stroke="#2167F2" stroke-opacity="0.2" stroke-width="3.25"/>
<path d="M1068.32 296.787H1008.97V356.135H1068.32V296.787Z" stroke="#2167F2" stroke-opacity="0.2" stroke-width="3.25"/>
<path d="M1127.67 296.787H1068.32V356.135H1127.67V296.787Z" stroke="#2167F2" stroke-opacity="0.2" stroke-width="3.25"/>
<path d="M59.3929 356.135H0.0444336L0.0444336 415.484H59.3929V356.135Z" stroke="#2167F2" stroke-opacity="0.2" stroke-width="3.25"/>
<path d="M118.742 356.135H59.3931V415.484H118.742V356.135Z" stroke="#2167F2" stroke-opacity="0.2" stroke-width="3.25"/>
<path d="M178.09 356.135H118.741V415.484H178.09V356.135Z" stroke="#2167F2" stroke-opacity="0.2" stroke-width="3.25"/>
<path d="M237.438 356.135H178.09V415.484H237.438V356.135Z" stroke="#2167F2" stroke-opacity="0.2" stroke-width="3.25"/>
<path d="M296.787 356.135H237.438V415.484H296.787V356.135Z" stroke="#2167F2" stroke-opacity="0.2" stroke-width="3.25"/>
<path d="M356.136 356.135H296.787V415.484H356.136V356.135Z" stroke="#2167F2" stroke-opacity="0.2" stroke-width="3.25"/>
<path d="M415.484 356.135H356.135V415.484H415.484V356.135Z" stroke="#2167F2" stroke-opacity="0.2" stroke-width="3.25"/>
<path d="M474.832 356.135H415.484V415.484H474.832V356.135Z" stroke="#2167F2" stroke-opacity="0.2" stroke-width="3.25"/>
<path d="M534.181 356.135H474.833V415.484H534.181V356.135Z" stroke="#2167F2" stroke-opacity="0.2" stroke-width="3.25"/>
<path d="M593.529 356.135H534.181V415.484H593.529V356.135Z" stroke="#2167F2" stroke-opacity="0.2" stroke-width="3.25"/>
<path d="M652.878 356.135H593.529V415.484H652.878V356.135Z" stroke="#2167F2" stroke-opacity="0.2" stroke-width="3.25"/>
<path d="M712.226 356.135H652.878V415.484H712.226V356.135Z" stroke="#2167F2" stroke-opacity="0.2" stroke-width="3.25"/>
<path d="M771.575 356.135H712.227V415.484H771.575V356.135Z" stroke="#2167F2" stroke-opacity="0.2" stroke-width="3.25"/>
<path d="M830.924 356.135H771.575V415.484H830.924V356.135Z" stroke="#2167F2" stroke-opacity="0.2" stroke-width="3.25"/>
<path d="M890.272 356.135H830.924V415.484H890.272V356.135Z" stroke="#2167F2" stroke-opacity="0.2" stroke-width="3.25"/>
<path d="M949.621 356.135H890.272V415.484H949.621V356.135Z" stroke="#2167F2" stroke-opacity="0.2" stroke-width="3.25"/>
<path d="M1008.97 356.135H949.62V415.484H1008.97V356.135Z" stroke="#2167F2" stroke-opacity="0.2" stroke-width="3.25"/>
<path d="M1068.32 356.135H1008.97V415.484H1068.32V356.135Z" stroke="#2167F2" stroke-opacity="0.2" stroke-width="3.25"/>
<path d="M1127.67 356.135H1068.32V415.484H1127.67V356.135Z" stroke="#2167F2" stroke-opacity="0.2" stroke-width="3.25"/>
<path d="M59.3929 415.484H0.0444336L0.0444336 474.832H59.3929V415.484Z" stroke="#2167F2" stroke-opacity="0.2" stroke-width="3.25"/>
<path d="M118.742 415.484H59.3931V474.832H118.742V415.484Z" stroke="#2167F2" stroke-opacity="0.2" stroke-width="3.25"/>
<path d="M178.09 415.484H118.741V474.832H178.09V415.484Z" stroke="#2167F2" stroke-opacity="0.2" stroke-width="3.25"/>
<path d="M237.438 415.484H178.09V474.832H237.438V415.484Z" stroke="#2167F2" stroke-opacity="0.2" stroke-width="3.25"/>
<path d="M296.787 415.484H237.438V474.832H296.787V415.484Z" stroke="#2167F2" stroke-opacity="0.2" stroke-width="3.25"/>
<path d="M356.136 415.484H296.787V474.832H356.136V415.484Z" stroke="#2167F2" stroke-opacity="0.2" stroke-width="3.25"/>
<path d="M415.484 415.484H356.135V474.832H415.484V415.484Z" stroke="#2167F2" stroke-opacity="0.2" stroke-width="3.25"/>
<path d="M474.832 415.484H415.484V474.832H474.832V415.484Z" stroke="#2167F2" stroke-opacity="0.2" stroke-width="3.25"/>
<path d="M534.181 415.484H474.833V474.832H534.181V415.484Z" stroke="#2167F2" stroke-opacity="0.2" stroke-width="3.25"/>
<path d="M593.529 415.484H534.181V474.832H593.529V415.484Z" stroke="#2167F2" stroke-opacity="0.2" stroke-width="3.25"/>
<path d="M652.878 415.484H593.529V474.832H652.878V415.484Z" stroke="#2167F2" stroke-opacity="0.2" stroke-width="3.25"/>
<path d="M712.226 415.484H652.878V474.832H712.226V415.484Z" stroke="#2167F2" stroke-opacity="0.2" stroke-width="3.25"/>
<path d="M771.575 415.484H712.227V474.832H771.575V415.484Z" stroke="#2167F2" stroke-opacity="0.2" stroke-width="3.25"/>
<path d="M830.924 415.484H771.575V474.832H830.924V415.484Z" stroke="#2167F2" stroke-opacity="0.2" stroke-width="3.25"/>
<path d="M890.272 415.484H830.924V474.832H890.272V415.484Z" stroke="#2167F2" stroke-opacity="0.2" stroke-width="3.25"/>
<path d="M949.621 415.484H890.272V474.832H949.621V415.484Z" stroke="#2167F2" stroke-opacity="0.2" stroke-width="3.25"/>
<path d="M1008.97 415.484H949.62V474.832H1008.97V415.484Z" stroke="#2167F2" stroke-opacity="0.2" stroke-width="3.25"/>
<path d="M1068.32 415.484H1008.97V474.832H1068.32V415.484Z" stroke="#2167F2" stroke-opacity="0.2" stroke-width="3.25"/>
<path d="M1127.67 415.484H1068.32V474.832H1127.67V415.484Z" stroke="#2167F2" stroke-opacity="0.2" stroke-width="3.25"/>
<path d="M59.3929 474.833H0.0444336L0.0444336 534.181H59.3929V474.833Z" stroke="#2167F2" stroke-opacity="0.2" stroke-width="3.25"/>
<path d="M118.742 474.833H59.3931V534.181H118.742V474.833Z" stroke="#2167F2" stroke-opacity="0.2" stroke-width="3.25"/>
<path d="M178.09 474.833H118.741V534.181H178.09V474.833Z" stroke="#2167F2" stroke-opacity="0.2" stroke-width="3.25"/>
<path d="M237.438 474.833H178.09V534.181H237.438V474.833Z" stroke="#2167F2" stroke-opacity="0.2" stroke-width="3.25"/>
<path d="M296.787 474.833H237.438V534.181H296.787V474.833Z" stroke="#2167F2" stroke-opacity="0.2" stroke-width="3.25"/>
<path d="M356.136 474.833H296.787V534.181H356.136V474.833Z" stroke="#2167F2" stroke-opacity="0.2" stroke-width="3.25"/>
<path d="M415.484 474.833H356.135V534.181H415.484V474.833Z" stroke="#2167F2" stroke-opacity="0.2" stroke-width="3.25"/>
<path d="M474.832 474.833H415.484V534.181H474.832V474.833Z" stroke="#2167F2" stroke-opacity="0.2" stroke-width="3.25"/>
<path d="M534.181 474.833H474.833V534.181H534.181V474.833Z" stroke="#2167F2" stroke-opacity="0.2" stroke-width="3.25"/>
<path d="M593.529 474.833H534.181V534.181H593.529V474.833Z" stroke="#2167F2" stroke-opacity="0.2" stroke-width="3.25"/>
<path d="M652.878 474.833H593.529V534.181H652.878V474.833Z" stroke="#2167F2" stroke-opacity="0.2" stroke-width="3.25"/>
<path d="M712.226 474.833H652.878V534.181H712.226V474.833Z" stroke="#2167F2" stroke-opacity="0.2" stroke-width="3.25"/>
<path d="M771.575 474.833H712.227V534.181H771.575V474.833Z" stroke="#2167F2" stroke-opacity="0.2" stroke-width="3.25"/>
<path d="M830.924 474.833H771.575V534.181H830.924V474.833Z" stroke="#2167F2" stroke-opacity="0.2" stroke-width="3.25"/>
<path d="M890.272 474.833H830.924V534.181H890.272V474.833Z" stroke="#2167F2" stroke-opacity="0.2" stroke-width="3.25"/>
<path d="M949.621 474.833H890.272V534.181H949.621V474.833Z" stroke="#2167F2" stroke-opacity="0.2" stroke-width="3.25"/>
<path d="M1008.97 474.833H949.62V534.181H1008.97V474.833Z" stroke="#2167F2" stroke-opacity="0.2" stroke-width="3.25"/>
<path d="M1068.32 474.833H1008.97V534.181H1068.32V474.833Z" stroke="#2167F2" stroke-opacity="0.2" stroke-width="3.25"/>
<path d="M1127.67 474.833H1068.32V534.181H1127.67V474.833Z" stroke="#2167F2" stroke-opacity="0.2" stroke-width="3.25"/>
<path d="M59.3929 534.181H0.0444336L0.0444336 593.529H59.3929V534.181Z" stroke="#2167F2" stroke-opacity="0.2" stroke-width="3.25"/>
<path d="M118.742 534.181H59.3931V593.529H118.742V534.181Z" stroke="#2167F2" stroke-opacity="0.2" stroke-width="3.25"/>
<path d="M178.09 534.181H118.741V593.529H178.09V534.181Z" stroke="#2167F2" stroke-opacity="0.2" stroke-width="3.25"/>
<path d="M237.438 534.181H178.09V593.529H237.438V534.181Z" stroke="#2167F2" stroke-opacity="0.2" stroke-width="3.25"/>
<path d="M296.787 534.181H237.438V593.529H296.787V534.181Z" stroke="#2167F2" stroke-opacity="0.2" stroke-width="3.25"/>
<path d="M356.136 534.181H296.787V593.529H356.136V534.181Z" stroke="#2167F2" stroke-opacity="0.2" stroke-width="3.25"/>
<path d="M415.484 534.181H356.135V593.529H415.484V534.181Z" stroke="#2167F2" stroke-opacity="0.2" stroke-width="3.25"/>
<path d="M474.832 534.181H415.484V593.529H474.832V534.181Z" stroke="#2167F2" stroke-opacity="0.2" stroke-width="3.25"/>
<path d="M534.181 534.181H474.833V593.529H534.181V534.181Z" stroke="#2167F2" stroke-opacity="0.2" stroke-width="3.25"/>
<path d="M593.529 534.181H534.181V593.529H593.529V534.181Z" stroke="#2167F2" stroke-opacity="0.2" stroke-width="3.25"/>
<path d="M652.878 534.181H593.529V593.529H652.878V534.181Z" stroke="#2167F2" stroke-opacity="0.2" stroke-width="3.25"/>
<path d="M712.226 534.181H652.878V593.529H712.226V534.181Z" stroke="#2167F2" stroke-opacity="0.2" stroke-width="3.25"/>
<path d="M771.575 534.181H712.227V593.529H771.575V534.181Z" stroke="#2167F2" stroke-opacity="0.2" stroke-width="3.25"/>
<path d="M830.924 534.181H771.575V593.529H830.924V534.181Z" stroke="#2167F2" stroke-opacity="0.2" stroke-width="3.25"/>
<path d="M890.272 534.181H830.924V593.529H890.272V534.181Z" stroke="#2167F2" stroke-opacity="0.2" stroke-width="3.25"/>
<path d="M949.621 534.181H890.272V593.529H949.621V534.181Z" stroke="#2167F2" stroke-opacity="0.2" stroke-width="3.25"/>
<path d="M1008.97 534.181H949.62V593.529H1008.97V534.181Z" stroke="#2167F2" stroke-opacity="0.2" stroke-width="3.25"/>
<path d="M1068.32 534.181H1008.97V593.529H1068.32V534.181Z" stroke="#2167F2" stroke-opacity="0.2" stroke-width="3.25"/>
<path d="M1127.67 534.181H1068.32V593.529H1127.67V534.181Z" stroke="#2167F2" stroke-opacity="0.2" stroke-width="3.25"/>
<path d="M59.3929 593.53H0.0444336L0.0444336 652.878H59.3929V593.53Z" stroke="#2167F2" stroke-opacity="0.2" stroke-width="3.25"/>
<path d="M118.742 593.53H59.3931V652.878H118.742V593.53Z" stroke="#2167F2" stroke-opacity="0.2" stroke-width="3.25"/>
<path d="M178.09 593.53H118.741V652.878H178.09V593.53Z" stroke="#2167F2" stroke-opacity="0.2" stroke-width="3.25"/>
<path d="M237.438 593.53H178.09V652.878H237.438V593.53Z" stroke="#2167F2" stroke-opacity="0.2" stroke-width="3.25"/>
<path d="M296.787 593.53H237.438V652.878H296.787V593.53Z" stroke="#2167F2" stroke-opacity="0.2" stroke-width="3.25"/>
<path d="M356.136 593.53H296.787V652.878H356.136V593.53Z" stroke="#2167F2" stroke-opacity="0.2" stroke-width="3.25"/>
<path d="M415.484 593.53H356.135V652.878H415.484V593.53Z" stroke="#2167F2" stroke-opacity="0.2" stroke-width="3.25"/>
<path d="M474.832 593.53H415.484V652.878H474.832V593.53Z" stroke="#2167F2" stroke-opacity="0.2" stroke-width="3.25"/>
<path d="M534.181 593.53H474.833V652.878H534.181V593.53Z" stroke="#2167F2" stroke-opacity="0.2" stroke-width="3.25"/>
<path d="M593.529 593.53H534.181V652.878H593.529V593.53Z" stroke="#2167F2" stroke-opacity="0.2" stroke-width="3.25"/>
<path d="M652.878 593.53H593.529V652.878H652.878V593.53Z" stroke="#2167F2" stroke-opacity="0.2" stroke-width="3.25"/>
<path d="M712.226 593.53H652.878V652.878H712.226V593.53Z" stroke="#2167F2" stroke-opacity="0.2" stroke-width="3.25"/>
<path d="M771.575 593.53H712.227V652.878H771.575V593.53Z" stroke="#2167F2" stroke-opacity="0.2" stroke-width="3.25"/>
<path d="M830.924 593.53H771.575V652.878H830.924V593.53Z" stroke="#2167F2" stroke-opacity="0.2" stroke-width="3.25"/>
<path d="M890.272 593.53H830.924V652.878H890.272V593.53Z" stroke="#2167F2" stroke-opacity="0.2" stroke-width="3.25"/>
<path d="M949.621 593.53H890.272V652.878H949.621V593.53Z" stroke="#2167F2" stroke-opacity="0.2" stroke-width="3.25"/>
<path d="M1008.97 593.53H949.62V652.878H1008.97V593.53Z" stroke="#2167F2" stroke-opacity="0.2" stroke-width="3.25"/>
<path d="M1068.32 593.53H1008.97V652.878H1068.32V593.53Z" stroke="#2167F2" stroke-opacity="0.2" stroke-width="3.25"/>
<path d="M1127.67 593.53H1068.32V652.878H1127.67V593.53Z" stroke="#2167F2" stroke-opacity="0.2" stroke-width="3.25"/>
<path d="M59.3929 652.878H0.0444336L0.0444336 712.226H59.3929V652.878Z" stroke="#2167F2" stroke-opacity="0.2" stroke-width="3.25"/>
<path d="M118.742 652.878H59.3931V712.226H118.742V652.878Z" stroke="#2167F2" stroke-opacity="0.2" stroke-width="3.25"/>
<path d="M178.09 652.878H118.741V712.226H178.09V652.878Z" stroke="#2167F2" stroke-opacity="0.2" stroke-width="3.25"/>
<path d="M237.438 652.878H178.09V712.226H237.438V652.878Z" stroke="#2167F2" stroke-opacity="0.2" stroke-width="3.25"/>
<path d="M296.787 652.878H237.438V712.226H296.787V652.878Z" stroke="#2167F2" stroke-opacity="0.2" stroke-width="3.25"/>
<path d="M356.136 652.878H296.787V712.226H356.136V652.878Z" stroke="#2167F2" stroke-opacity="0.2" stroke-width="3.25"/>
<path d="M415.484 652.878H356.135V712.226H415.484V652.878Z" stroke="#2167F2" stroke-opacity="0.2" stroke-width="3.25"/>
<path d="M474.832 652.878H415.484V712.226H474.832V652.878Z" stroke="#2167F2" stroke-opacity="0.2" stroke-width="3.25"/>
<path d="M534.181 652.878H474.833V712.226H534.181V652.878Z" stroke="#2167F2" stroke-opacity="0.2" stroke-width="3.25"/>
<path d="M593.529 652.878H534.181V712.226H593.529V652.878Z" stroke="#2167F2" stroke-opacity="0.2" stroke-width="3.25"/>
<path d="M652.878 652.878H593.529V712.226H652.878V652.878Z" stroke="#2167F2" stroke-opacity="0.2" stroke-width="3.25"/>
<path d="M712.226 652.878H652.878V712.226H712.226V652.878Z" stroke="#2167F2" stroke-opacity="0.2" stroke-width="3.25"/>
<path d="M771.575 652.878H712.227V712.226H771.575V652.878Z" stroke="#2167F2" stroke-opacity="0.2" stroke-width="3.25"/>
<path d="M830.924 652.878H771.575V712.226H830.924V652.878Z" stroke="#2167F2" stroke-opacity="0.2" stroke-width="3.25"/>
<path d="M890.272 652.878H830.924V712.226H890.272V652.878Z" stroke="#2167F2" stroke-opacity="0.2" stroke-width="3.25"/>
<path d="M949.621 652.878H890.272V712.226H949.621V652.878Z" stroke="#2167F2" stroke-opacity="0.2" stroke-width="3.25"/>
<path d="M1008.97 652.878H949.62V712.226H1008.97V652.878Z" stroke="#2167F2" stroke-opacity="0.2" stroke-width="3.25"/>
<path d="M1068.32 652.878H1008.97V712.226H1068.32V652.878Z" stroke="#2167F2" stroke-opacity="0.2" stroke-width="3.25"/>
<path d="M1127.67 652.878H1068.32V712.226H1127.67V652.878Z" stroke="#2167F2" stroke-opacity="0.2" stroke-width="3.25"/>
<path d="M59.3929 712.226H0.0444336L0.0444336 771.575H59.3929V712.226Z" stroke="#2167F2" stroke-opacity="0.2" stroke-width="3.25"/>
<path d="M118.742 712.226H59.3931V771.575H118.742V712.226Z" stroke="#2167F2" stroke-opacity="0.2" stroke-width="3.25"/>
<path d="M178.09 712.226H118.741V771.575H178.09V712.226Z" stroke="#2167F2" stroke-opacity="0.2" stroke-width="3.25"/>
<path d="M237.438 712.226H178.09V771.575H237.438V712.226Z" stroke="#2167F2" stroke-opacity="0.2" stroke-width="3.25"/>
<path d="M296.787 712.226H237.438V771.575H296.787V712.226Z" stroke="#2167F2" stroke-opacity="0.2" stroke-width="3.25"/>
<path d="M356.136 712.226H296.787V771.575H356.136V712.226Z" stroke="#2167F2" stroke-opacity="0.2" stroke-width="3.25"/>
<path d="M415.484 712.226H356.135V771.575H415.484V712.226Z" stroke="#2167F2" stroke-opacity="0.2" stroke-width="3.25"/>
<path d="M474.832 712.226H415.484V771.575H474.832V712.226Z" stroke="#2167F2" stroke-opacity="0.2" stroke-width="3.25"/>
<path d="M534.181 712.226H474.833V771.575H534.181V712.226Z" stroke="#2167F2" stroke-opacity="0.2" stroke-width="3.25"/>
<path d="M593.529 712.226H534.181V771.575H593.529V712.226Z" stroke="#2167F2" stroke-opacity="0.2" stroke-width="3.25"/>
<path d="M652.878 712.226H593.529V771.575H652.878V712.226Z" stroke="#2167F2" stroke-opacity="0.2" stroke-width="3.25"/>
<path d="M712.226 712.226H652.878V771.575H712.226V712.226Z" stroke="#2167F2" stroke-opacity="0.2" stroke-width="3.25"/>
<path d="M771.575 712.226H712.227V771.575H771.575V712.226Z" stroke="#2167F2" stroke-opacity="0.2" stroke-width="3.25"/>
<path d="M830.924 712.226H771.575V771.575H830.924V712.226Z" stroke="#2167F2" stroke-opacity="0.2" stroke-width="3.25"/>
<path d="M890.272 712.226H830.924V771.575H890.272V712.226Z" stroke="#2167F2" stroke-opacity="0.2" stroke-width="3.25"/>
<path d="M949.621 712.226H890.272V771.575H949.621V712.226Z" stroke="#2167F2" stroke-opacity="0.2" stroke-width="3.25"/>
<path d="M1008.97 712.226H949.62V771.575H1008.97V712.226Z" stroke="#2167F2" stroke-opacity="0.2" stroke-width="3.25"/>
<path d="M1068.32 712.226H1008.97V771.575H1068.32V712.226Z" stroke="#2167F2" stroke-opacity="0.2" stroke-width="3.25"/>
<path d="M1127.67 712.226H1068.32V771.575H1127.67V712.226Z" stroke="#2167F2" stroke-opacity="0.2" stroke-width="3.25"/>
<path d="M59.3929 771.575H0.0444336L0.0444336 830.923H59.3929V771.575Z" stroke="#2167F2" stroke-opacity="0.2" stroke-width="3.25"/>
<path d="M118.742 771.575H59.3931V830.923H118.742V771.575Z" stroke="#2167F2" stroke-opacity="0.2" stroke-width="3.25"/>
<path d="M178.09 771.575H118.741V830.923H178.09V771.575Z" stroke="#2167F2" stroke-opacity="0.2" stroke-width="3.25"/>
<path d="M237.438 771.575H178.09V830.923H237.438V771.575Z" stroke="#2167F2" stroke-opacity="0.2" stroke-width="3.25"/>
<path d="M296.787 771.575H237.438V830.923H296.787V771.575Z" stroke="#2167F2" stroke-opacity="0.2" stroke-width="3.25"/>
<path d="M356.136 771.575H296.787V830.923H356.136V771.575Z" stroke="#2167F2" stroke-opacity="0.2" stroke-width="3.25"/>
<path d="M415.484 771.575H356.135V830.923H415.484V771.575Z" stroke="#2167F2" stroke-opacity="0.2" stroke-width="3.25"/>
<path d="M474.832 771.575H415.484V830.923H474.832V771.575Z" stroke="#2167F2" stroke-opacity="0.2" stroke-width="3.25"/>
<path d="M534.181 771.575H474.833V830.923H534.181V771.575Z" stroke="#2167F2" stroke-opacity="0.2" stroke-width="3.25"/>
<path d="M593.529 771.575H534.181V830.923H593.529V771.575Z" stroke="#2167F2" stroke-opacity="0.2" stroke-width="3.25"/>
<path d="M652.878 771.575H593.529V830.923H652.878V771.575Z" stroke="#2167F2" stroke-opacity="0.2" stroke-width="3.25"/>
<path d="M712.226 771.575H652.878V830.923H712.226V771.575Z" stroke="#2167F2" stroke-opacity="0.2" stroke-width="3.25"/>
<path d="M771.575 771.575H712.227V830.923H771.575V771.575Z" stroke="#2167F2" stroke-opacity="0.2" stroke-width="3.25"/>
<path d="M830.924 771.575H771.575V830.923H830.924V771.575Z" stroke="#2167F2" stroke-opacity="0.2" stroke-width="3.25"/>
<path d="M890.272 771.575H830.924V830.923H890.272V771.575Z" stroke="#2167F2" stroke-opacity="0.2" stroke-width="3.25"/>
<path d="M949.621 771.575H890.272V830.923H949.621V771.575Z" stroke="#2167F2" stroke-opacity="0.2" stroke-width="3.25"/>
<path d="M1008.97 771.575H949.62V830.923H1008.97V771.575Z" stroke="#2167F2" stroke-opacity="0.2" stroke-width="3.25"/>
<path d="M1068.32 771.575H1008.97V830.923H1068.32V771.575Z" stroke="#2167F2" stroke-opacity="0.2" stroke-width="3.25"/>
<path d="M1127.67 771.575H1068.32V830.923H1127.67V771.575Z" stroke="#2167F2" stroke-opacity="0.2" stroke-width="3.25"/>
<path d="M59.3929 830.924H0.0444336L0.0444336 890.272H59.3929V830.924Z" stroke="#2167F2" stroke-opacity="0.2" stroke-width="3.25"/>
<path d="M118.742 830.924H59.3931V890.272H118.742V830.924Z" stroke="#2167F2" stroke-opacity="0.2" stroke-width="3.25"/>
<path d="M178.09 830.924H118.741V890.272H178.09V830.924Z" stroke="#2167F2" stroke-opacity="0.2" stroke-width="3.25"/>
<path d="M237.438 830.924H178.09V890.272H237.438V830.924Z" stroke="#2167F2" stroke-opacity="0.2" stroke-width="3.25"/>
<path d="M296.787 830.924H237.438V890.272H296.787V830.924Z" stroke="#2167F2" stroke-opacity="0.2" stroke-width="3.25"/>
<path d="M356.136 830.924H296.787V890.272H356.136V830.924Z" stroke="#2167F2" stroke-opacity="0.2" stroke-width="3.25"/>
<path d="M415.484 830.924H356.135V890.272H415.484V830.924Z" stroke="#2167F2" stroke-opacity="0.2" stroke-width="3.25"/>
<path d="M474.832 830.924H415.484V890.272H474.832V830.924Z" stroke="#2167F2" stroke-opacity="0.2" stroke-width="3.25"/>
<path d="M534.181 830.924H474.833V890.272H534.181V830.924Z" stroke="#2167F2" stroke-opacity="0.2" stroke-width="3.25"/>
<path d="M593.529 830.924H534.181V890.272H593.529V830.924Z" stroke="#2167F2" stroke-opacity="0.2" stroke-width="3.25"/>
<path d="M652.878 830.924H593.529V890.272H652.878V830.924Z" stroke="#2167F2" stroke-opacity="0.2" stroke-width="3.25"/>
<path d="M712.226 830.924H652.878V890.272H712.226V830.924Z" stroke="#2167F2" stroke-opacity="0.2" stroke-width="3.25"/>
<path d="M771.575 830.924H712.227V890.272H771.575V830.924Z" stroke="#2167F2" stroke-opacity="0.2" stroke-width="3.25"/>
<path d="M830.924 830.924H771.575V890.272H830.924V830.924Z" stroke="#2167F2" stroke-opacity="0.2" stroke-width="3.25"/>
<path d="M890.272 830.924H830.924V890.272H890.272V830.924Z" stroke="#2167F2" stroke-opacity="0.2" stroke-width="3.25"/>
<path d="M949.621 830.924H890.272V890.272H949.621V830.924Z" stroke="#2167F2" stroke-opacity="0.2" stroke-width="3.25"/>
<path d="M1008.97 830.924H949.62V890.272H1008.97V830.924Z" stroke="#2167F2" stroke-opacity="0.2" stroke-width="3.25"/>
<path d="M1068.32 830.924H1008.97V890.272H1068.32V830.924Z" stroke="#2167F2" stroke-opacity="0.2" stroke-width="3.25"/>
<path d="M1127.67 830.924H1068.32V890.272H1127.67V830.924Z" stroke="#2167F2" stroke-opacity="0.2" stroke-width="3.25"/>
<path d="M59.3929 890.272H0.0444336L0.0444336 949.62H59.3929V890.272Z" stroke="#2167F2" stroke-opacity="0.2" stroke-width="3.25"/>
<path d="M118.742 890.272H59.3931V949.62H118.742V890.272Z" stroke="#2167F2" stroke-opacity="0.2" stroke-width="3.25"/>
<path d="M178.09 890.272H118.741V949.62H178.09V890.272Z" stroke="#2167F2" stroke-opacity="0.2" stroke-width="3.25"/>
<path d="M237.438 890.272H178.09V949.62H237.438V890.272Z" stroke="#2167F2" stroke-opacity="0.2" stroke-width="3.25"/>
<path d="M296.787 890.272H237.438V949.62H296.787V890.272Z" stroke="#2167F2" stroke-opacity="0.2" stroke-width="3.25"/>
<path d="M356.136 890.272H296.787V949.62H356.136V890.272Z" stroke="#2167F2" stroke-opacity="0.2" stroke-width="3.25"/>
<path d="M415.484 890.272H356.135V949.62H415.484V890.272Z" stroke="#2167F2" stroke-opacity="0.2" stroke-width="3.25"/>
<path d="M474.832 890.272H415.484V949.62H474.832V890.272Z" stroke="#2167F2" stroke-opacity="0.2" stroke-width="3.25"/>
<path d="M534.181 890.272H474.833V949.62H534.181V890.272Z" stroke="#2167F2" stroke-opacity="0.2" stroke-width="3.25"/>
<path d="M593.529 890.272H534.181V949.62H593.529V890.272Z" stroke="#2167F2" stroke-opacity="0.2" stroke-width="3.25"/>
<path d="M652.878 890.272H593.529V949.62H652.878V890.272Z" stroke="#2167F2" stroke-opacity="0.2" stroke-width="3.25"/>
<path d="M712.226 890.272H652.878V949.62H712.226V890.272Z" stroke="#2167F2" stroke-opacity="0.2" stroke-width="3.25"/>
<path d="M771.575 890.272H712.227V949.62H771.575V890.272Z" stroke="#2167F2" stroke-opacity="0.2" stroke-width="3.25"/>
<path d="M830.924 890.272H771.575V949.62H830.924V890.272Z" stroke="#2167F2" stroke-opacity="0.2" stroke-width="3.25"/>
<path d="M890.272 890.272H830.924V949.62H890.272V890.272Z" stroke="#2167F2" stroke-opacity="0.2" stroke-width="3.25"/>
<path d="M949.621 890.272H890.272V949.62H949.621V890.272Z" stroke="#2167F2" stroke-opacity="0.2" stroke-width="3.25"/>
<path d="M1008.97 890.272H949.62V949.62H1008.97V890.272Z" stroke="#2167F2" stroke-opacity="0.2" stroke-width="3.25"/>
<path d="M1068.32 890.272H1008.97V949.62H1068.32V890.272Z" stroke="#2167F2" stroke-opacity="0.2" stroke-width="3.25"/>
<path d="M1127.67 890.272H1068.32V949.62H1127.67V890.272Z" stroke="#2167F2" stroke-opacity="0.2" stroke-width="3.25"/>
<path d="M59.3929 949.62H0.0444336L0.0444336 1008.97H59.3929V949.62Z" stroke="#2167F2" stroke-opacity="0.2" stroke-width="3.25"/>
<path d="M118.742 949.62H59.3931V1008.97H118.742V949.62Z" stroke="#2167F2" stroke-opacity="0.2" stroke-width="3.25"/>
<path d="M178.09 949.62H118.741V1008.97H178.09V949.62Z" stroke="#2167F2" stroke-opacity="0.2" stroke-width="3.25"/>
<path d="M237.438 949.62H178.09V1008.97H237.438V949.62Z" stroke="#2167F2" stroke-opacity="0.2" stroke-width="3.25"/>
<path d="M296.787 949.62H237.438V1008.97H296.787V949.62Z" stroke="#2167F2" stroke-opacity="0.2" stroke-width="3.25"/>
<path d="M356.136 949.62H296.787V1008.97H356.136V949.62Z" stroke="#2167F2" stroke-opacity="0.2" stroke-width="3.25"/>
<path d="M415.484 949.62H356.135V1008.97H415.484V949.62Z" stroke="#2167F2" stroke-opacity="0.2" stroke-width="3.25"/>
<path d="M474.832 949.62H415.484V1008.97H474.832V949.62Z" stroke="#2167F2" stroke-opacity="0.2" stroke-width="3.25"/>
<path d="M534.181 949.62H474.833V1008.97H534.181V949.62Z" stroke="#2167F2" stroke-opacity="0.2" stroke-width="3.25"/>
<path d="M593.529 949.62H534.181V1008.97H593.529V949.62Z" stroke="#2167F2" stroke-opacity="0.2" stroke-width="3.25"/>
<path d="M652.878 949.62H593.529V1008.97H652.878V949.62Z" stroke="#2167F2" stroke-opacity="0.2" stroke-width="3.25"/>
<path d="M712.226 949.62H652.878V1008.97H712.226V949.62Z" stroke="#2167F2" stroke-opacity="0.2" stroke-width="3.25"/>
<path d="M771.575 949.62H712.227V1008.97H771.575V949.62Z" stroke="#2167F2" stroke-opacity="0.2" stroke-width="3.25"/>
<path d="M830.924 949.62H771.575V1008.97H830.924V949.62Z" stroke="#2167F2" stroke-opacity="0.2" stroke-width="3.25"/>
<path d="M890.272 949.62H830.924V1008.97H890.272V949.62Z" stroke="#2167F2" stroke-opacity="0.2" stroke-width="3.25"/>
<path d="M949.621 949.62H890.272V1008.97H949.621V949.62Z" stroke="#2167F2" stroke-opacity="0.2" stroke-width="3.25"/>
<path d="M1008.97 949.62H949.62V1008.97H1008.97V949.62Z" stroke="#2167F2" stroke-opacity="0.2" stroke-width="3.25"/>
<path d="M1068.32 949.62H1008.97V1008.97H1068.32V949.62Z" stroke="#2167F2" stroke-opacity="0.2" stroke-width="3.25"/>
<path d="M1127.67 949.62H1068.32V1008.97H1127.67V949.62Z" stroke="#2167F2" stroke-opacity="0.2" stroke-width="3.25"/>
<path d="M59.3929 1008.97H0.0444336L0.0444336 1068.32H59.3929V1008.97Z" stroke="#2167F2" stroke-opacity="0.2" stroke-width="3.25"/>
<path d="M118.742 1008.97H59.3931V1068.32H118.742V1008.97Z" stroke="#2167F2" stroke-opacity="0.2" stroke-width="3.25"/>
<path d="M178.09 1008.97H118.741V1068.32H178.09V1008.97Z" stroke="#2167F2" stroke-opacity="0.2" stroke-width="3.25"/>
<path d="M237.438 1008.97H178.09V1068.32H237.438V1008.97Z" stroke="#2167F2" stroke-opacity="0.2" stroke-width="3.25"/>
<path d="M296.787 1008.97H237.438V1068.32H296.787V1008.97Z" stroke="#2167F2" stroke-opacity="0.2" stroke-width="3.25"/>
<path d="M356.136 1008.97H296.787V1068.32H356.136V1008.97Z" stroke="#2167F2" stroke-opacity="0.2" stroke-width="3.25"/>
<path d="M415.484 1008.97H356.135V1068.32H415.484V1008.97Z" stroke="#2167F2" stroke-opacity="0.2" stroke-width="3.25"/>
<path d="M474.832 1008.97H415.484V1068.32H474.832V1008.97Z" stroke="#2167F2" stroke-opacity="0.2" stroke-width="3.25"/>
<path d="M534.181 1008.97H474.833V1068.32H534.181V1008.97Z" stroke="#2167F2" stroke-opacity="0.2" stroke-width="3.25"/>
<path d="M593.529 1008.97H534.181V1068.32H593.529V1008.97Z" stroke="#2167F2" stroke-opacity="0.2" stroke-width="3.25"/>
<path d="M652.878 1008.97H593.529V1068.32H652.878V1008.97Z" stroke="#2167F2" stroke-opacity="0.2" stroke-width="3.25"/>
<path d="M712.226 1008.97H652.878V1068.32H712.226V1008.97Z" stroke="#2167F2" stroke-opacity="0.2" stroke-width="3.25"/>
<path d="M771.575 1008.97H712.227V1068.32H771.575V1008.97Z" stroke="#2167F2" stroke-opacity="0.2" stroke-width="3.25"/>
<path d="M830.924 1008.97H771.575V1068.32H830.924V1008.97Z" stroke="#2167F2" stroke-opacity="0.2" stroke-width="3.25"/>
<path d="M890.272 1008.97H830.924V1068.32H890.272V1008.97Z" stroke="#2167F2" stroke-opacity="0.2" stroke-width="3.25"/>
<path d="M949.621 1008.97H890.272V1068.32H949.621V1008.97Z" stroke="#2167F2" stroke-opacity="0.2" stroke-width="3.25"/>
<path d="M1008.97 1008.97H949.62V1068.32H1008.97V1008.97Z" stroke="#2167F2" stroke-opacity="0.2" stroke-width="3.25"/>
<path d="M1068.32 1008.97H1008.97V1068.32H1068.32V1008.97Z" stroke="#2167F2" stroke-opacity="0.2" stroke-width="3.25"/>
<path d="M1127.67 1008.97H1068.32V1068.32H1127.67V1008.97Z" stroke="#2167F2" stroke-opacity="0.2" stroke-width="3.25"/>
<path d="M59.3929 1068.32H0.0444336L0.0444336 1127.67H59.3929V1068.32Z" stroke="#2167F2" stroke-opacity="0.2" stroke-width="3.25"/>
<path d="M118.742 1068.32H59.3931V1127.67H118.742V1068.32Z" stroke="#2167F2" stroke-opacity="0.2" stroke-width="3.25"/>
<path d="M178.09 1068.32H118.741V1127.67H178.09V1068.32Z" stroke="#2167F2" stroke-opacity="0.2" stroke-width="3.25"/>
<path d="M237.438 1068.32H178.09V1127.67H237.438V1068.32Z" stroke="#2167F2" stroke-opacity="0.2" stroke-width="3.25"/>
<path d="M296.787 1068.32H237.438V1127.67H296.787V1068.32Z" stroke="#2167F2" stroke-opacity="0.2" stroke-width="3.25"/>
<path d="M356.136 1068.32H296.787V1127.67H356.136V1068.32Z" stroke="#2167F2" stroke-opacity="0.2" stroke-width="3.25"/>
<path d="M415.484 1068.32H356.135V1127.67H415.484V1068.32Z" stroke="#2167F2" stroke-opacity="0.2" stroke-width="3.25"/>
<path d="M474.832 1068.32H415.484V1127.67H474.832V1068.32Z" stroke="#2167F2" stroke-opacity="0.2" stroke-width="3.25"/>
<path d="M534.181 1068.32H474.833V1127.67H534.181V1068.32Z" stroke="#2167F2" stroke-opacity="0.2" stroke-width="3.25"/>
<path d="M593.529 1068.32H534.181V1127.67H593.529V1068.32Z" stroke="#2167F2" stroke-opacity="0.2" stroke-width="3.25"/>
<path d="M652.878 1068.32H593.529V1127.67H652.878V1068.32Z" stroke="#2167F2" stroke-opacity="0.2" stroke-width="3.25"/>
<path d="M712.226 1068.32H652.878V1127.67H712.226V1068.32Z" stroke="#2167F2" stroke-opacity="0.2" stroke-width="3.25"/>
<path d="M771.575 1068.32H712.227V1127.67H771.575V1068.32Z" stroke="#2167F2" stroke-opacity="0.2" stroke-width="3.25"/>
<path d="M830.924 1068.32H771.575V1127.67H830.924V1068.32Z" stroke="#2167F2" stroke-opacity="0.2" stroke-width="3.25"/>
<path d="M890.272 1068.32H830.924V1127.67H890.272V1068.32Z" stroke="#2167F2" stroke-opacity="0.2" stroke-width="3.25"/>
<path d="M949.621 1068.32H890.272V1127.67H949.621V1068.32Z" stroke="#2167F2" stroke-opacity="0.2" stroke-width="3.25"/>
<path d="M1008.97 1068.32H949.62V1127.67H1008.97V1068.32Z" stroke="#2167F2" stroke-opacity="0.2" stroke-width="3.25"/>
<path d="M1068.32 1068.32H1008.97V1127.67H1068.32V1068.32Z" stroke="#2167F2" stroke-opacity="0.2" stroke-width="3.25"/>
<path d="M1127.67 1068.32H1068.32V1127.67H1127.67V1068.32Z" stroke="#2167F2" stroke-opacity="0.2" stroke-width="3.25"/>
</g>
<defs>
<clipPath id="clip0_126_845">
<rect width="1068.27" height="1068.27" fill="white" transform="translate(0.0444336 0.0444336)"/>
</clipPath>
</defs>
</svg>

